<?xml version="1.0" encoding="UTF-8" standalone="no"?>
<!DOCTYPE svg PUBLIC "-//W3C//DTD SVG 1.1//EN"
 "http://www.w3.org/Graphics/SVG/1.1/DTD/svg11.dtd">
<!-- Generated by graphviz version 2.40.1 (20161225.0304)
 -->
<!-- Title: G Pages: 1 -->
<svg width="888pt" height="723pt"
 viewBox="0.00 0.00 888.00 723.00" xmlns="http://www.w3.org/2000/svg" xmlns:xlink="http://www.w3.org/1999/xlink">
<g id="graph0" class="graph" transform="scale(1 1) rotate(0) translate(4 719)">
<title>G</title>
<polygon fill="#ffffff" stroke="transparent" points="-4,4 -4,-719 884,-719 884,4 -4,4"/>
<g id="clust1" class="cluster">
<title>cluster_root</title>
<g id="a_clust1"><a xlink:title="eventq_index=0&#10;full_system=false&#10;sim_quantum=0&#10;time_sync_enable=false&#10;time_sync_period=100000000000&#10;time_sync_spin_threshold=100000000">
<path fill="#bab6ae" stroke="#000000" d="M20,-8C20,-8 860,-8 860,-8 866,-8 872,-14 872,-20 872,-20 872,-695 872,-695 872,-701 866,-707 860,-707 860,-707 20,-707 20,-707 14,-707 8,-701 8,-695 8,-695 8,-20 8,-20 8,-14 14,-8 20,-8"/>
<text text-anchor="middle" x="440" y="-691.8" font-family="Arial" font-size="14.00" fill="#000000">root </text>
<text text-anchor="middle" x="440" y="-676.8" font-family="Arial" font-size="14.00" fill="#000000">: Root</text>
</a>
</g>
</g>
<g id="clust2" class="cluster">
<title>cluster_system</title>
<g id="a_clust2"><a xlink:title="byte_order=little&#10;cache_line_size=64&#10;eventq_index=0&#10;exit_on_work_items=false&#10;init_param=0&#10;kvm_vm=Null&#10;m5ops_base=4294901760&#10;mem_mode=timing&#10;mem_ranges=0:536870912&#10;memories=system.mem_ctrl.dram&#10;mmap_using_noreserve=false&#10;multi_thread=false&#10;&#10;um_work_ids=16&#10;&#13;eadfile=&#10;&#13;edirect_paths=&#10;shadow_rom_ranges=&#10;shared_backstore=&#10;symbolfile=&#10;thermal_components=&#10;thermal_model=Null&#10;work_begin_ckpt_count=0&#10;work_begin_cpu_id_exit=&#45;1&#10;work_begin_exit_count=0&#10;work_cpus_ckpt_count=0&#10;work_end_ckpt_count=0&#10;work_end_exit_count=0&#10;work_item_id=&#45;1&#10;workload=system.workload">
<path fill="#e4e7eb" stroke="#000000" d="M28,-16C28,-16 852,-16 852,-16 858,-16 864,-22 864,-28 864,-28 864,-649 864,-649 864,-655 858,-661 852,-661 852,-661 28,-661 28,-661 22,-661 16,-655 16,-649 16,-649 16,-28 16,-28 16,-22 22,-16 28,-16"/>
<text text-anchor="middle" x="440" y="-645.8" font-family="Arial" font-size="14.00" fill="#000000">system </text>
<text text-anchor="middle" x="440" y="-630.8" font-family="Arial" font-size="14.00" fill="#000000">: System</text>
</a>
</g>
</g>
<g id="clust6" class="cluster">
<title>cluster_system_cpu</title>
<g id="a_clust6"><a xlink:title="LFSTSize=1024&#10;LQEntries=32&#10;LSQCheckLoads=true&#10;LSQDepCheckShift=4&#10;SQEntries=32&#10;SSITSize=1024&#10;activity=0&#10;backComSize=5&#10;branchPred=system.cpu.branchPred&#10;cacheLoadPorts=200&#10;cacheStorePorts=200&#10;checker=Null&#10;clk_domain=system.clk_domain&#10;commitToDecodeDelay=1&#10;commitToFetchDelay=1&#10;commitToIEWDelay=1&#10;commitToRenameDelay=1&#10;commitWidth=8&#10;cpu_id=&#45;1&#10;decodeToFetchDelay=1&#10;decodeToRenameDelay=1&#10;decodeWidth=8&#10;dispatchWidth=8&#10;do_checkpoint_insts=true&#10;do_statistics_insts=true&#10;eventq_index=0&#10;fetchBufferSize=64&#10;fetchQueueSize=32&#10;fetchToDecodeDelay=1&#10;fetchTrapLatency=1&#10;fetchWidth=8&#10;forwardComSize=5&#10;fuPool=system.cpu.fuPool&#10;function_trace=false&#10;function_trace_start=0&#10;iewToCommitDelay=1&#10;iewToDecodeDelay=1&#10;iewToFetchDelay=1&#10;iewToRenameDelay=1&#10;interrupts=system.cpu.interrupts&#10;isa=system.cpu.isa&#10;issueToExecuteDelay=1&#10;issueWidth=8&#10;max_insts_all_threads=0&#10;max_insts_any_thread=0&#10;mmu=system.cpu.mmu&#10;&#10;eedsTSO=true&#10;&#10;umIQEntries=64&#10;&#10;umPhysCCRegs=1280&#10;&#10;umPhysFloatRegs=256&#10;&#10;umPhysIntRegs=256&#10;&#10;umPhysVecPredRegs=32&#10;&#10;umPhysVecRegs=256&#10;&#10;umROBEntries=192&#10;&#10;umRobs=1&#10;&#10;umThreads=1&#10;power_gating_on_idle=false&#10;power_model=&#10;power_state=system.cpu.power_state&#10;progress_interval=0&#10;pwr_gating_latency=300&#10;&#13;enameToDecodeDelay=1&#10;&#13;enameToFetchDelay=1&#10;&#13;enameToIEWDelay=2&#10;&#13;enameToROBDelay=1&#10;&#13;enameWidth=8&#10;simpoint_start_insts=&#10;smtCommitPolicy=RoundRobin&#10;smtFetchPolicy=RoundRobin&#10;smtIQPolicy=Partitioned&#10;smtIQThreshold=100&#10;smtLSQPolicy=Partitioned&#10;smtLSQThreshold=100&#10;smtNumFetchingThreads=1&#10;smtROBPolicy=Partitioned&#10;smtROBThreshold=100&#10;socket_id=0&#10;squashWidth=8&#10;store_set_clear_period=250000&#10;switched_out=false&#10;syscallRetryLatency=10000&#10;system=system&#10;tracer=system.cpu.tracer&#10;trapLatency=13&#10;wbWidth=8&#10;workload=system.cpu.workload">
<path fill="#bbc6d9" stroke="#000000" d="M320,-24C320,-24 844,-24 844,-24 850,-24 856,-30 856,-36 856,-36 856,-288 856,-288 856,-294 850,-300 844,-300 844,-300 320,-300 320,-300 314,-300 308,-294 308,-288 308,-288 308,-36 308,-36 308,-30 314,-24 320,-24"/>
<text text-anchor="middle" x="582" y="-284.8" font-family="Arial" font-size="14.00" fill="#000000">cpu </text>
<text text-anchor="middle" x="582" y="-269.8" font-family="Arial" font-size="14.00" fill="#000000">: O3CPU</text>
</a>
</g>
</g>
<g id="clust76" class="cluster">
<title>cluster_system_cpu_icache</title>
<g id="a_clust76"><a xlink:title="addr_ranges=0:18446744073709551615&#10;assoc=2&#10;clk_domain=system.clk_domain&#10;clusivity=mostly_incl&#10;compressor=Null&#10;data_latency=2&#10;demand_mshr_reserve=1&#10;eventq_index=0&#10;is_read_only=false&#10;max_miss_count=0&#10;move_contractions=true&#10;mshrs=4&#10;power_model=&#10;power_state=system.cpu.icache.power_state&#10;prefetch_on_access=false&#10;prefetch_on_pf_hit=false&#10;prefetcher=Null&#10;&#13;eplace_expansions=true&#10;&#13;eplacement_policy=system.cpu.icache.replacement_policy&#10;&#13;esponse_latency=2&#10;sequential_access=false&#10;size=16384&#10;system=system&#10;tag_latency=2&#10;tags=system.cpu.icache.tags&#10;tgts_per_mshr=20&#10;warmup_percentage=0&#10;write_allocator=Null&#10;write_buffers=8&#10;writeback_clean=false">
<path fill="#bab6ae" stroke="#000000" d="M530,-32C530,-32 700,-32 700,-32 706,-32 712,-38 712,-44 712,-44 712,-111 712,-111 712,-117 706,-123 700,-123 700,-123 530,-123 530,-123 524,-123 518,-117 518,-111 518,-111 518,-44 518,-44 518,-38 524,-32 530,-32"/>
<text text-anchor="middle" x="615" y="-107.8" font-family="Arial" font-size="14.00" fill="#000000">icache </text>
<text text-anchor="middle" x="615" y="-92.8" font-family="Arial" font-size="14.00" fill="#000000">: L1ICache</text>
</a>
</g>
</g>
<g id="clust82" class="cluster">
<title>cluster_system_cpu_dcache</title>
<g id="a_clust82"><a xlink:title="addr_ranges=0:18446744073709551615&#10;assoc=2&#10;clk_domain=system.clk_domain&#10;clusivity=mostly_incl&#10;compressor=Null&#10;data_latency=2&#10;demand_mshr_reserve=1&#10;eventq_index=0&#10;is_read_only=false&#10;max_miss_count=0&#10;move_contractions=true&#10;mshrs=4&#10;power_model=&#10;power_state=system.cpu.dcache.power_state&#10;prefetch_on_access=false&#10;prefetch_on_pf_hit=false&#10;prefetcher=Null&#10;&#13;eplace_expansions=true&#10;&#13;eplacement_policy=system.cpu.dcache.replacement_policy&#10;&#13;esponse_latency=2&#10;sequential_access=false&#10;size=65536&#10;system=system&#10;tag_latency=2&#10;tags=system.cpu.dcache.tags&#10;tgts_per_mshr=20&#10;warmup_percentage=0&#10;write_allocator=Null&#10;write_buffers=8&#10;writeback_clean=false">
<path fill="#bab6ae" stroke="#000000" d="M328,-32C328,-32 498,-32 498,-32 504,-32 510,-38 510,-44 510,-44 510,-111 510,-111 510,-117 504,-123 498,-123 498,-123 328,-123 328,-123 322,-123 316,-117 316,-111 316,-111 316,-44 316,-44 316,-38 322,-32 328,-32"/>
<text text-anchor="middle" x="413" y="-107.8" font-family="Arial" font-size="14.00" fill="#000000">dcache </text>
<text text-anchor="middle" x="413" y="-92.8" font-family="Arial" font-size="14.00" fill="#000000">: L1DCache</text>
</a>
</g>
</g>
<g id="clust88" class="cluster">
<title>cluster_system_cpu_interrupts</title>
<g id="a_clust88"><a xlink:title="clk_domain=system.cpu.interrupts.clk_domain&#10;eventq_index=0&#10;int_latency=1000&#10;pio_latency=100000&#10;system=system">
<path fill="#bab6ae" stroke="#000000" d="M546,-163C546,-163 836,-163 836,-163 842,-163 848,-169 848,-175 848,-175 848,-242 848,-242 848,-248 842,-254 836,-254 836,-254 546,-254 546,-254 540,-254 534,-248 534,-242 534,-242 534,-175 534,-175 534,-169 540,-163 546,-163"/>
<text text-anchor="middle" x="691" y="-238.8" font-family="Arial" font-size="14.00" fill="#000000">interrupts </text>
<text text-anchor="middle" x="691" y="-223.8" font-family="Arial" font-size="14.00" fill="#000000">: X86LocalApic</text>
</a>
</g>
</g>
<g id="clust92" class="cluster">
<title>cluster_system_l2bus</title>
<g id="a_clust92"><a xlink:title="clk_domain=system.clk_domain&#10;eventq_index=0&#10;forward_latency=0&#10;frontend_latency=1&#10;header_latency=1&#10;max_outstanding_snoops=512&#10;max_routing_table_size=512&#10;point_of_coherency=false&#10;point_of_unification=true&#10;power_model=&#10;power_state=system.l2bus.power_state&#10;&#13;esponse_latency=1&#10;snoop_filter=system.l2bus.snoop_filter&#10;snoop_response_latency=1&#10;system=system&#10;use_default_range=false&#10;width=32">
<path fill="#6f798c" stroke="#000000" d="M36,-163C36,-163 288,-163 288,-163 294,-163 300,-169 300,-175 300,-175 300,-242 300,-242 300,-248 294,-254 288,-254 288,-254 36,-254 36,-254 30,-254 24,-248 24,-242 24,-242 24,-175 24,-175 24,-169 30,-163 36,-163"/>
<text text-anchor="middle" x="162" y="-238.8" font-family="Arial" font-size="14.00" fill="#000000">l2bus </text>
<text text-anchor="middle" x="162" y="-223.8" font-family="Arial" font-size="14.00" fill="#000000">: L2XBar</text>
</a>
</g>
</g>
<g id="clust95" class="cluster">
<title>cluster_system_l2cache</title>
<g id="a_clust95"><a xlink:title="addr_ranges=0:18446744073709551615&#10;assoc=8&#10;clk_domain=system.clk_domain&#10;clusivity=mostly_incl&#10;compressor=Null&#10;data_latency=20&#10;demand_mshr_reserve=1&#10;eventq_index=0&#10;is_read_only=false&#10;max_miss_count=0&#10;move_contractions=true&#10;mshrs=20&#10;power_model=&#10;power_state=system.l2cache.power_state&#10;prefetch_on_access=false&#10;prefetch_on_pf_hit=false&#10;prefetcher=Null&#10;&#13;eplace_expansions=true&#10;&#13;eplacement_policy=system.l2cache.replacement_policy&#10;&#13;esponse_latency=20&#10;sequential_access=false&#10;size=262144&#10;system=system&#10;tag_latency=20&#10;tags=system.l2cache.tags&#10;tgts_per_mshr=12&#10;warmup_percentage=0&#10;write_allocator=Null&#10;write_buffers=8&#10;writeback_clean=false">
<path fill="#bab6ae" stroke="#000000" d="M218,-308C218,-308 388,-308 388,-308 394,-308 400,-314 400,-320 400,-320 400,-387 400,-387 400,-393 394,-399 388,-399 388,-399 218,-399 218,-399 212,-399 206,-393 206,-387 206,-387 206,-320 206,-320 206,-314 212,-308 218,-308"/>
<text text-anchor="middle" x="303" y="-383.8" font-family="Arial" font-size="14.00" fill="#000000">l2cache </text>
<text text-anchor="middle" x="303" y="-368.8" font-family="Arial" font-size="14.00" fill="#000000">: L2Cache</text>
</a>
</g>
</g>
<g id="clust101" class="cluster">
<title>cluster_system_membus</title>
<g id="a_clust101"><a xlink:title="clk_domain=system.clk_domain&#10;eventq_index=0&#10;forward_latency=4&#10;frontend_latency=3&#10;header_latency=1&#10;max_outstanding_snoops=512&#10;max_routing_table_size=512&#10;point_of_coherency=true&#10;point_of_unification=true&#10;power_model=&#10;power_state=system.membus.power_state&#10;&#13;esponse_latency=2&#10;snoop_filter=system.membus.snoop_filter&#10;snoop_response_latency=4&#10;system=system&#10;use_default_range=false&#10;width=16">
<path fill="#6f798c" stroke="#000000" d="M539,-439C539,-439 791,-439 791,-439 797,-439 803,-445 803,-451 803,-451 803,-518 803,-518 803,-524 797,-530 791,-530 791,-530 539,-530 539,-530 533,-530 527,-524 527,-518 527,-518 527,-451 527,-451 527,-445 533,-439 539,-439"/>
<text text-anchor="middle" x="665" y="-514.8" font-family="Arial" font-size="14.00" fill="#000000">membus </text>
<text text-anchor="middle" x="665" y="-499.8" font-family="Arial" font-size="14.00" fill="#000000">: SystemXBar</text>
</a>
</g>
</g>
<g id="clust104" class="cluster">
<title>cluster_system_mem_ctrl</title>
<g id="a_clust104"><a xlink:title="clk_domain=system.clk_domain&#10;command_window=10000&#10;dram=system.mem_ctrl.dram&#10;eventq_index=0&#10;mem_sched_policy=frfcfs&#10;min_writes_per_switch=16&#10;&#10;vm=Null&#10;power_model=&#10;power_state=system.mem_ctrl.power_state&#10;qos_policy=Null&#10;qos_priorities=1&#10;qos_priority_escalation=false&#10;qos_q_policy=fifo&#10;qos_requestors= &#160;&#160;&#160;&#160;&#160;&#160;&#160;&#160;&#160;&#160;&#160;&#160;&#160;&#160;&#10;qos_syncro_scheduler=false&#10;qos_turnaround_policy=Null&#10;static_backend_latency=10000&#10;static_frontend_latency=10000&#10;system=system&#10;write_high_thresh_perc=85&#10;write_low_thresh_perc=50">
<path fill="#bab6ae" stroke="#000000" d="M757,-308C757,-308 813,-308 813,-308 819,-308 825,-314 825,-320 825,-320 825,-387 825,-387 825,-393 819,-399 813,-399 813,-399 757,-399 757,-399 751,-399 745,-393 745,-387 745,-387 745,-320 745,-320 745,-314 751,-308 757,-308"/>
<text text-anchor="middle" x="785" y="-383.8" font-family="Arial" font-size="14.00" fill="#000000">mem_ctrl </text>
<text text-anchor="middle" x="785" y="-368.8" font-family="Arial" font-size="14.00" fill="#000000">: MemCtrl</text>
</a>
</g>
</g>
<!-- system_system_port -->
<g id="node1" class="node">
<title>system_system_port</title>
<path fill="#b6b8bc" stroke="#000000" d="M557,-578.5C557,-578.5 629,-578.5 629,-578.5 635,-578.5 641,-584.5 641,-590.5 641,-590.5 641,-602.5 641,-602.5 641,-608.5 635,-614.5 629,-614.5 629,-614.5 557,-614.5 557,-614.5 551,-614.5 545,-608.5 545,-602.5 545,-602.5 545,-590.5 545,-590.5 545,-584.5 551,-578.5 557,-578.5"/>
<text text-anchor="middle" x="593" y="-592.8" font-family="Arial" font-size="14.00" fill="#000000">system_port</text>
</g>
<!-- system_membus_cpu_side_ports -->
<g id="node15" class="node">
<title>system_membus_cpu_side_ports</title>
<path fill="#586070" stroke="#000000" d="M547,-447.5C547,-447.5 639,-447.5 639,-447.5 645,-447.5 651,-453.5 651,-459.5 651,-459.5 651,-471.5 651,-471.5 651,-477.5 645,-483.5 639,-483.5 639,-483.5 547,-483.5 547,-483.5 541,-483.5 535,-477.5 535,-471.5 535,-471.5 535,-459.5 535,-459.5 535,-453.5 541,-447.5 547,-447.5"/>
<text text-anchor="middle" x="593" y="-461.8" font-family="Arial" font-size="14.00" fill="#000000">cpu_side_ports</text>
</g>
<!-- system_system_port&#45;&gt;system_membus_cpu_side_ports -->
<g id="edge1" class="edge">
<title>system_system_port&#45;&gt;system_membus_cpu_side_ports</title>
<path fill="none" stroke="#000000" d="M593,-578.285C593,-556.3856 593,-519.3861 593,-493.7663"/>
<polygon fill="#000000" stroke="#000000" points="596.5001,-493.5603 593,-483.5603 589.5001,-493.5603 596.5001,-493.5603"/>
</g>
<!-- system_cpu_icache_port -->
<g id="node2" class="node">
<title>system_cpu_icache_port</title>
<path fill="#959ead" stroke="#000000" d="M444,-171.5C444,-171.5 512,-171.5 512,-171.5 518,-171.5 524,-177.5 524,-183.5 524,-183.5 524,-195.5 524,-195.5 524,-201.5 518,-207.5 512,-207.5 512,-207.5 444,-207.5 444,-207.5 438,-207.5 432,-201.5 432,-195.5 432,-195.5 432,-183.5 432,-183.5 432,-177.5 438,-171.5 444,-171.5"/>
<text text-anchor="middle" x="478" y="-185.8" font-family="Arial" font-size="14.00" fill="#000000">icache_port</text>
</g>
<!-- system_cpu_icache_cpu_side -->
<g id="node4" class="node">
<title>system_cpu_icache_cpu_side</title>
<path fill="#94918b" stroke="#000000" d="M640,-40.5C640,-40.5 692,-40.5 692,-40.5 698,-40.5 704,-46.5 704,-52.5 704,-52.5 704,-64.5 704,-64.5 704,-70.5 698,-76.5 692,-76.5 692,-76.5 640,-76.5 640,-76.5 634,-76.5 628,-70.5 628,-64.5 628,-64.5 628,-52.5 628,-52.5 628,-46.5 634,-40.5 640,-40.5"/>
<text text-anchor="middle" x="666" y="-54.8" font-family="Arial" font-size="14.00" fill="#000000">cpu_side</text>
</g>
<!-- system_cpu_icache_port&#45;&gt;system_cpu_icache_cpu_side -->
<g id="edge2" class="edge">
<title>system_cpu_icache_port&#45;&gt;system_cpu_icache_cpu_side</title>
<path fill="none" stroke="#000000" d="M512.8474,-171.4459C518.556,-168.5735 524.4261,-165.6709 530,-163 569.1089,-144.26 585.3264,-150.3272 619,-123 631.7262,-112.6723 642.7264,-98.1177 650.8786,-85.4474"/>
<polygon fill="#000000" stroke="#000000" points="654.0369,-86.9932 656.2953,-76.6418 648.0746,-83.3255 654.0369,-86.9932"/>
</g>
<!-- system_cpu_dcache_port -->
<g id="node3" class="node">
<title>system_cpu_dcache_port</title>
<path fill="#959ead" stroke="#000000" d="M328,-171.5C328,-171.5 402,-171.5 402,-171.5 408,-171.5 414,-177.5 414,-183.5 414,-183.5 414,-195.5 414,-195.5 414,-201.5 408,-207.5 402,-207.5 402,-207.5 328,-207.5 328,-207.5 322,-207.5 316,-201.5 316,-195.5 316,-195.5 316,-183.5 316,-183.5 316,-177.5 322,-171.5 328,-171.5"/>
<text text-anchor="middle" x="365" y="-185.8" font-family="Arial" font-size="14.00" fill="#000000">dcache_port</text>
</g>
<!-- system_cpu_dcache_cpu_side -->
<g id="node6" class="node">
<title>system_cpu_dcache_cpu_side</title>
<path fill="#94918b" stroke="#000000" d="M438,-40.5C438,-40.5 490,-40.5 490,-40.5 496,-40.5 502,-46.5 502,-52.5 502,-52.5 502,-64.5 502,-64.5 502,-70.5 496,-76.5 490,-76.5 490,-76.5 438,-76.5 438,-76.5 432,-76.5 426,-70.5 426,-64.5 426,-64.5 426,-52.5 426,-52.5 426,-46.5 432,-40.5 438,-40.5"/>
<text text-anchor="middle" x="464" y="-54.8" font-family="Arial" font-size="14.00" fill="#000000">cpu_side</text>
</g>
<!-- system_cpu_dcache_port&#45;&gt;system_cpu_dcache_cpu_side -->
<g id="edge3" class="edge">
<title>system_cpu_dcache_port&#45;&gt;system_cpu_dcache_cpu_side</title>
<path fill="none" stroke="#000000" d="M379.5148,-171.2823C390.0386,-157.9906 404.5488,-139.4922 417,-123 426.4051,-110.5426 436.6343,-96.5585 445.141,-84.8038"/>
<polygon fill="#000000" stroke="#000000" points="447.9809,-86.8496 450.9943,-76.6923 442.3044,-82.7534 447.9809,-86.8496"/>
</g>
<!-- system_cpu_icache_mem_side -->
<g id="node5" class="node">
<title>system_cpu_icache_mem_side</title>
<path fill="#94918b" stroke="#000000" d="M538,-40.5C538,-40.5 598,-40.5 598,-40.5 604,-40.5 610,-46.5 610,-52.5 610,-52.5 610,-64.5 610,-64.5 610,-70.5 604,-76.5 598,-76.5 598,-76.5 538,-76.5 538,-76.5 532,-76.5 526,-70.5 526,-64.5 526,-64.5 526,-52.5 526,-52.5 526,-46.5 532,-40.5 538,-40.5"/>
<text text-anchor="middle" x="568" y="-54.8" font-family="Arial" font-size="14.00" fill="#000000">mem_side</text>
</g>
<!-- system_cpu_dcache_mem_side -->
<g id="node7" class="node">
<title>system_cpu_dcache_mem_side</title>
<path fill="#94918b" stroke="#000000" d="M336,-40.5C336,-40.5 396,-40.5 396,-40.5 402,-40.5 408,-46.5 408,-52.5 408,-52.5 408,-64.5 408,-64.5 408,-70.5 402,-76.5 396,-76.5 396,-76.5 336,-76.5 336,-76.5 330,-76.5 324,-70.5 324,-64.5 324,-64.5 324,-52.5 324,-52.5 324,-46.5 330,-40.5 336,-40.5"/>
<text text-anchor="middle" x="366" y="-54.8" font-family="Arial" font-size="14.00" fill="#000000">mem_side</text>
</g>
<!-- system_cpu_interrupts_int_requestor -->
<g id="node8" class="node">
<title>system_cpu_interrupts_int_requestor</title>
<path fill="#94918b" stroke="#000000" d="M554.5,-171.5C554.5,-171.5 631.5,-171.5 631.5,-171.5 637.5,-171.5 643.5,-177.5 643.5,-183.5 643.5,-183.5 643.5,-195.5 643.5,-195.5 643.5,-201.5 637.5,-207.5 631.5,-207.5 631.5,-207.5 554.5,-207.5 554.5,-207.5 548.5,-207.5 542.5,-201.5 542.5,-195.5 542.5,-195.5 542.5,-183.5 542.5,-183.5 542.5,-177.5 548.5,-171.5 554.5,-171.5"/>
<text text-anchor="middle" x="593" y="-185.8" font-family="Arial" font-size="14.00" fill="#000000">int_requestor</text>
</g>
<!-- system_cpu_interrupts_int_responder -->
<g id="node9" class="node">
<title>system_cpu_interrupts_int_responder</title>
<path fill="#94918b" stroke="#000000" d="M674,-171.5C674,-171.5 756,-171.5 756,-171.5 762,-171.5 768,-177.5 768,-183.5 768,-183.5 768,-195.5 768,-195.5 768,-201.5 762,-207.5 756,-207.5 756,-207.5 674,-207.5 674,-207.5 668,-207.5 662,-201.5 662,-195.5 662,-195.5 662,-183.5 662,-183.5 662,-177.5 668,-171.5 674,-171.5"/>
<text text-anchor="middle" x="715" y="-185.8" font-family="Arial" font-size="14.00" fill="#000000">int_responder</text>
</g>
<!-- system_cpu_interrupts_pio -->
<g id="node10" class="node">
<title>system_cpu_interrupts_pio</title>
<path fill="#94918b" stroke="#000000" d="M798,-171.5C798,-171.5 828,-171.5 828,-171.5 834,-171.5 840,-177.5 840,-183.5 840,-183.5 840,-195.5 840,-195.5 840,-201.5 834,-207.5 828,-207.5 828,-207.5 798,-207.5 798,-207.5 792,-207.5 786,-201.5 786,-195.5 786,-195.5 786,-183.5 786,-183.5 786,-177.5 792,-171.5 798,-171.5"/>
<text text-anchor="middle" x="813" y="-185.8" font-family="Arial" font-size="14.00" fill="#000000">pio</text>
</g>
<!-- system_l2bus_cpu_side_ports -->
<g id="node11" class="node">
<title>system_l2bus_cpu_side_ports</title>
<path fill="#586070" stroke="#000000" d="M188,-171.5C188,-171.5 280,-171.5 280,-171.5 286,-171.5 292,-177.5 292,-183.5 292,-183.5 292,-195.5 292,-195.5 292,-201.5 286,-207.5 280,-207.5 280,-207.5 188,-207.5 188,-207.5 182,-207.5 176,-201.5 176,-195.5 176,-195.5 176,-183.5 176,-183.5 176,-177.5 182,-171.5 188,-171.5"/>
<text text-anchor="middle" x="234" y="-185.8" font-family="Arial" font-size="14.00" fill="#000000">cpu_side_ports</text>
</g>
<!-- system_l2bus_cpu_side_ports&#45;&gt;system_cpu_icache_mem_side -->
<g id="edge4" class="edge">
<title>system_l2bus_cpu_side_ports&#45;&gt;system_cpu_icache_mem_side</title>
<path fill="none" stroke="#000000" d="M287.7624,-168.0784C293.2054,-166.2323 298.685,-164.5 304,-163 395.4398,-137.1945 432.0715,-171.1132 514,-123 533.0158,-111.8328 548.3864,-91.3988 557.796,-76.5152"/>
<polygon fill="#000000" stroke="#000000" points="286.318,-164.8763 278.048,-171.4989 288.6428,-171.479 286.318,-164.8763"/>
</g>
<!-- system_l2bus_cpu_side_ports&#45;&gt;system_cpu_dcache_mem_side -->
<g id="edge5" class="edge">
<title>system_l2bus_cpu_side_ports&#45;&gt;system_cpu_dcache_mem_side</title>
<path fill="none" stroke="#000000" d="M259.6037,-164.0903C285.5144,-138.3758 324.9234,-99.2654 347.8018,-76.5603"/>
<polygon fill="#000000" stroke="#000000" points="256.9865,-161.7566 252.354,-171.285 261.9174,-166.7251 256.9865,-161.7566"/>
</g>
<!-- system_l2bus_mem_side_ports -->
<g id="node12" class="node">
<title>system_l2bus_mem_side_ports</title>
<path fill="#586070" stroke="#000000" d="M44.5,-171.5C44.5,-171.5 145.5,-171.5 145.5,-171.5 151.5,-171.5 157.5,-177.5 157.5,-183.5 157.5,-183.5 157.5,-195.5 157.5,-195.5 157.5,-201.5 151.5,-207.5 145.5,-207.5 145.5,-207.5 44.5,-207.5 44.5,-207.5 38.5,-207.5 32.5,-201.5 32.5,-195.5 32.5,-195.5 32.5,-183.5 32.5,-183.5 32.5,-177.5 38.5,-171.5 44.5,-171.5"/>
<text text-anchor="middle" x="95" y="-185.8" font-family="Arial" font-size="14.00" fill="#000000">mem_side_ports</text>
</g>
<!-- system_l2cache_cpu_side -->
<g id="node13" class="node">
<title>system_l2cache_cpu_side</title>
<path fill="#94918b" stroke="#000000" d="M328,-316.5C328,-316.5 380,-316.5 380,-316.5 386,-316.5 392,-322.5 392,-328.5 392,-328.5 392,-340.5 392,-340.5 392,-346.5 386,-352.5 380,-352.5 380,-352.5 328,-352.5 328,-352.5 322,-352.5 316,-346.5 316,-340.5 316,-340.5 316,-328.5 316,-328.5 316,-322.5 322,-316.5 328,-316.5"/>
<text text-anchor="middle" x="354" y="-330.8" font-family="Arial" font-size="14.00" fill="#000000">cpu_side</text>
</g>
<!-- system_l2cache_cpu_side&#45;&gt;system_l2bus_mem_side_ports -->
<g id="edge6" class="edge">
<title>system_l2cache_cpu_side&#45;&gt;system_l2bus_mem_side_ports</title>
<path fill="none" stroke="#000000" d="M317.7214,-311.9722C314.1867,-310.4155 310.5815,-309.0502 307,-308 277.0973,-299.2314 193.9621,-315.624 167,-300 131.538,-279.4505 110.4661,-233.614 100.9983,-207.8995"/>
<polygon fill="#000000" stroke="#000000" points="316.33,-315.1882 326.8487,-316.4555 319.4162,-308.9052 316.33,-315.1882"/>
</g>
<!-- system_l2cache_mem_side -->
<g id="node14" class="node">
<title>system_l2cache_mem_side</title>
<path fill="#94918b" stroke="#000000" d="M226,-316.5C226,-316.5 286,-316.5 286,-316.5 292,-316.5 298,-322.5 298,-328.5 298,-328.5 298,-340.5 298,-340.5 298,-346.5 292,-352.5 286,-352.5 286,-352.5 226,-352.5 226,-352.5 220,-352.5 214,-346.5 214,-340.5 214,-340.5 214,-328.5 214,-328.5 214,-322.5 220,-316.5 226,-316.5"/>
<text text-anchor="middle" x="256" y="-330.8" font-family="Arial" font-size="14.00" fill="#000000">mem_side</text>
</g>
<!-- system_membus_cpu_side_ports&#45;&gt;system_cpu_interrupts_int_requestor -->
<g id="edge8" class="edge">
<title>system_membus_cpu_side_ports&#45;&gt;system_cpu_interrupts_int_requestor</title>
<path fill="none" stroke="#000000" d="M593,-437.3614C593,-380.8029 593,-254.7322 593,-207.6758"/>
<polygon fill="#000000" stroke="#000000" points="589.5001,-437.3908 593,-447.3909 596.5001,-437.3909 589.5001,-437.3908"/>
</g>
<!-- system_membus_cpu_side_ports&#45;&gt;system_l2cache_mem_side -->
<g id="edge7" class="edge">
<title>system_membus_cpu_side_ports&#45;&gt;system_l2cache_mem_side</title>
<path fill="none" stroke="#000000" d="M524.9858,-455.0108C452.3068,-442.8785 342.7213,-421.6503 307,-399 288.9158,-387.5331 274.5146,-367.3597 265.6891,-352.6195"/>
<polygon fill="#000000" stroke="#000000" points="524.5481,-458.4859 534.9847,-456.6616 525.6884,-451.5793 524.5481,-458.4859"/>
</g>
<!-- system_membus_mem_side_ports -->
<g id="node16" class="node">
<title>system_membus_mem_side_ports</title>
<path fill="#586070" stroke="#000000" d="M681.5,-447.5C681.5,-447.5 782.5,-447.5 782.5,-447.5 788.5,-447.5 794.5,-453.5 794.5,-459.5 794.5,-459.5 794.5,-471.5 794.5,-471.5 794.5,-477.5 788.5,-483.5 782.5,-483.5 782.5,-483.5 681.5,-483.5 681.5,-483.5 675.5,-483.5 669.5,-477.5 669.5,-471.5 669.5,-471.5 669.5,-459.5 669.5,-459.5 669.5,-453.5 675.5,-447.5 681.5,-447.5"/>
<text text-anchor="middle" x="732" y="-461.8" font-family="Arial" font-size="14.00" fill="#000000">mem_side_ports</text>
</g>
<!-- system_membus_mem_side_ports&#45;&gt;system_cpu_interrupts_int_responder -->
<g id="edge10" class="edge">
<title>system_membus_mem_side_ports&#45;&gt;system_cpu_interrupts_int_responder</title>
<path fill="none" stroke="#000000" d="M730.8846,-447.3909C727.9908,-400.4093 720.2258,-274.3431 716.7381,-217.7189"/>
<polygon fill="#000000" stroke="#000000" points="720.2278,-217.4417 716.1195,-207.6758 713.241,-217.8721 720.2278,-217.4417"/>
</g>
<!-- system_membus_mem_side_ports&#45;&gt;system_cpu_interrupts_pio -->
<g id="edge9" class="edge">
<title>system_membus_mem_side_ports&#45;&gt;system_cpu_interrupts_pio</title>
<path fill="none" stroke="#000000" d="M731.8287,-447.3918C731.6287,-408.2441 732.152,-318.4071 741,-308 751.6165,-295.5128 764.866,-311.0186 777,-300 800.1336,-278.993 808.4525,-242.9605 811.415,-217.7714"/>
<polygon fill="#000000" stroke="#000000" points="814.9086,-218.005 812.3842,-207.7153 807.9409,-217.3333 814.9086,-218.005"/>
</g>
<!-- system_mem_ctrl_port -->
<g id="node17" class="node">
<title>system_mem_ctrl_port</title>
<path fill="#94918b" stroke="#000000" d="M766,-316.5C766,-316.5 796,-316.5 796,-316.5 802,-316.5 808,-322.5 808,-328.5 808,-328.5 808,-340.5 808,-340.5 808,-346.5 802,-352.5 796,-352.5 796,-352.5 766,-352.5 766,-352.5 760,-352.5 754,-346.5 754,-340.5 754,-340.5 754,-328.5 754,-328.5 754,-322.5 760,-316.5 766,-316.5"/>
<text text-anchor="middle" x="781" y="-330.8" font-family="Arial" font-size="14.00" fill="#000000">port</text>
</g>
<!-- system_membus_mem_side_ports&#45;&gt;system_mem_ctrl_port -->
<g id="edge11" class="edge">
<title>system_membus_mem_side_ports&#45;&gt;system_mem_ctrl_port</title>
<path fill="none" stroke="#000000" d="M738.8132,-447.285C747.0778,-425.19 761.0917,-387.7242 770.6828,-362.0828"/>
<polygon fill="#000000" stroke="#000000" points="774.0193,-363.1527 774.2446,-352.5603 767.463,-360.7003 774.0193,-363.1527"/>
</g>
</g>
</svg>
